<svg width="105" height="91" viewBox="0 0 105 91" fill="none" xmlns="http://www.w3.org/2000/svg">
<mask id="mask0_1_10" style="mask-type:luminance" maskUnits="userSpaceOnUse" x="28" y="0" width="49" height="56">
<path d="M28.5 0H76.5V55.4913H28.5V0Z" fill="white"/>
</mask>
<g mask="url(#mask0_1_10)">
<path d="M52.5347 -0.00161743L28.5058 13.8727V14.7426C28.5058 19.8452 29.3497 24.9045 30.9783 29.7065C31.211 30.3943 31.461 31.075 31.7269 31.7513C31.7442 31.7961 31.7615 31.8409 31.7803 31.8871C31.8251 32.0013 31.8714 32.1169 31.9176 32.231C31.9364 32.2758 31.9537 32.3206 31.9725 32.3654H31.974C32.237 33.0114 32.5159 33.6516 32.8078 34.286C54.3916 27.1487 56.2803 15.3091 56.2803 15.3091C51.5144 24.0417 40.1994 27.7469 33.9855 29.1342C32.474 24.8351 31.6257 20.2744 31.5318 15.6097L52.5347 3.48393L73.5376 15.6097C73.2384 30.4897 65.2702 44.2961 52.5347 51.9969C47.9118 49.2021 43.9191 45.6024 40.6922 41.4391C59.8786 28.0605 59.2543 12.1313 59.2543 12.1313C54.4422 30.6516 38.0795 37.1588 34.8873 38.2657C35.4205 39.1776 35.987 40.0692 36.5795 40.9406C36.5795 40.9406 36.5795 40.9406 36.578 40.9406C36.5997 40.9709 36.6214 41.0013 36.643 41.0331C36.7442 41.1805 36.8468 41.3293 36.9494 41.4767C36.9523 41.4796 36.9552 41.4839 36.9581 41.4897C37.3468 42.0403 37.7442 42.5851 38.1546 43.1183C38.156 43.1183 38.156 43.1183 38.156 43.1183C41.8627 47.9334 46.4913 52.0042 51.7803 55.0562L52.5347 55.4926L53.289 55.0562C60.3555 50.9767 66.2471 45.0851 70.328 38.0186C74.4075 30.9507 76.5636 22.903 76.5636 14.7426V13.8727L52.5347 -0.00161743Z" fill="url(#paint0_linear_1_10)"/>
</g>
<path d="M12.2346 78.6593C11.6506 78.6593 11.1606 78.5333 10.7646 78.2813C10.3726 78.0293 10.0786 77.6653 9.88256 77.1893C9.68656 76.7093 9.58856 76.1333 9.58856 75.4613V74.1113C9.58856 72.9833 9.89256 72.1253 10.5006 71.5373C11.1126 70.9493 12.0046 70.6553 13.1766 70.6553C13.5366 70.6553 13.8706 70.6813 14.1786 70.7333C14.4866 70.7813 14.7666 70.8453 15.0186 70.9253C15.2746 71.0053 15.4966 71.0933 15.6846 71.1893L15.8466 72.7733C15.5426 72.6373 15.2026 72.5173 14.8266 72.4133C14.4546 72.3053 14.0266 72.2513 13.5426 72.2513C12.8386 72.2513 12.3226 72.4113 11.9946 72.7313C11.6666 73.0473 11.5026 73.5433 11.5026 74.2193V75.4793C11.5026 75.9833 11.6206 76.3733 11.8566 76.6493C12.0966 76.9253 12.4686 77.0633 12.9726 77.0633C13.1966 77.0633 13.3906 77.0313 13.5546 76.9673C13.7226 76.8993 13.8606 76.8113 13.9686 76.7033C14.0806 76.5953 14.1686 76.4753 14.2326 76.3433V74.8793L14.4786 75.4313L13.0026 75.4373V73.9913H16.0326V77.2133H14.1966C14.1366 77.4893 14.0346 77.7373 13.8906 77.9573C13.7506 78.1733 13.5466 78.3453 13.2786 78.4733C13.0146 78.5973 12.6666 78.6593 12.2346 78.6593ZM14.2746 76.9133H16.0326V78.4913H14.2146L14.2746 76.9133ZM22.2366 78.6773C21.1206 78.6773 20.2826 78.3973 19.7226 77.8373C19.1666 77.2773 18.8886 76.4713 18.8886 75.4193V73.9613C18.8886 72.9053 19.1686 72.0913 19.7286 71.5193C20.2926 70.9433 21.1286 70.6553 22.2366 70.6553C23.3446 70.6553 24.1786 70.9433 24.7386 71.5193C25.3026 72.0913 25.5846 72.9053 25.5846 73.9613V75.4193C25.5846 76.4713 25.3046 77.2773 24.7446 77.8373C24.1846 78.3973 23.3486 78.6773 22.2366 78.6773ZM22.2366 77.1293C22.7206 77.1293 23.0806 76.9873 23.3166 76.7033C23.5526 76.4193 23.6706 76.0213 23.6706 75.5093V73.8653C23.6706 73.3293 23.5526 72.9173 23.3166 72.6293C23.0806 72.3413 22.7206 72.1973 22.2366 72.1973C21.7526 72.1973 21.3926 72.3413 21.1566 72.6293C20.9206 72.9173 20.8026 73.3293 20.8026 73.8653V75.5093C20.8026 76.0213 20.9206 76.4193 21.1566 76.7033C21.3926 76.9873 21.7526 77.1293 22.2366 77.1293ZM29.8239 78.4913L27.7239 70.8233H29.6679L31.1739 77.0933H31.3119L32.8239 70.8233H34.7619L32.6679 78.4913H29.8239ZM37.3944 78.4913V70.8233H39.2304V78.4913H37.3944ZM37.9404 78.4913V76.9253H42.7644V78.4913H37.9404ZM38.4684 75.3533V73.8473H42.6204V75.3533H38.4684ZM37.9344 72.3713V70.8233H42.7104V72.3713H37.9344ZM50.0532 78.4913L49.9032 77.0453C49.8792 76.7893 49.8292 76.5813 49.7532 76.4213C49.6772 76.2573 49.5612 76.1373 49.4052 76.0613C49.2492 75.9813 49.0412 75.9413 48.7812 75.9413L47.0472 75.9353V74.5013L48.8532 74.4953C49.2452 74.4953 49.5272 74.4093 49.6992 74.2373C49.8712 74.0653 49.9572 73.8073 49.9572 73.4633V73.3433C49.9572 73.0033 49.8712 72.7493 49.6992 72.5813C49.5312 72.4093 49.2472 72.3233 48.8472 72.3233H47.0352V70.8233H49.1172C50.0572 70.8233 50.7432 71.0053 51.1752 71.3693C51.6112 71.7333 51.8292 72.2573 51.8292 72.9413V73.0973C51.8292 73.6133 51.6972 74.0153 51.4332 74.3033C51.1692 74.5913 50.7672 74.7553 50.2272 74.7953V75.0593L49.8432 74.8013C50.3072 74.8333 50.6672 74.9293 50.9232 75.0893C51.1792 75.2493 51.3672 75.4733 51.4872 75.7613C51.6112 76.0453 51.7012 76.3993 51.7572 76.8233L51.9792 78.4913H50.0532ZM45.7452 78.4913V70.8233H47.5692V75.0173L47.5812 75.7133V78.4913H45.7452ZM57.3968 70.8173L59.4728 76.4453H59.5568L59.4728 73.2053V70.8173H61.2608V78.4913H58.7468L56.5928 72.7373H56.5148L56.5988 76.0493V78.4913H54.8108V70.8173H57.3968ZM66.8327 78.6533C66.4767 78.6533 66.1427 78.6293 65.8307 78.5813C65.5227 78.5373 65.2407 78.4793 64.9847 78.4073C64.7327 78.3313 64.5107 78.2533 64.3187 78.1733L64.1567 76.4453C64.4727 76.5933 64.8467 76.7313 65.2787 76.8593C65.7107 76.9833 66.1687 77.0453 66.6527 77.0453C67.1207 77.0453 67.4527 76.9873 67.6487 76.8713C67.8487 76.7513 67.9487 76.5653 67.9487 76.3133V76.2713C67.9487 76.1033 67.9027 75.9673 67.8107 75.8633C67.7227 75.7553 67.5727 75.6573 67.3607 75.5693C67.1527 75.4773 66.8707 75.3793 66.5147 75.2753C65.9787 75.1153 65.5307 74.9373 65.1707 74.7413C64.8147 74.5453 64.5487 74.3013 64.3727 74.0093C64.1967 73.7133 64.1087 73.3393 64.1087 72.8873V72.8093C64.1087 72.1133 64.3447 71.5813 64.8167 71.2133C65.2927 70.8453 65.9907 70.6613 66.9107 70.6613C67.4627 70.6613 67.9387 70.7093 68.3387 70.8053C68.7427 70.9013 69.0847 71.0153 69.3647 71.1473L69.5267 72.7553C69.2187 72.6073 68.8687 72.4833 68.4767 72.3833C68.0887 72.2793 67.6727 72.2273 67.2287 72.2273C66.9167 72.2273 66.6707 72.2533 66.4907 72.3053C66.3147 72.3573 66.1907 72.4333 66.1187 72.5333C66.0467 72.6293 66.0107 72.7473 66.0107 72.8873V72.9113C66.0107 73.0553 66.0507 73.1813 66.1307 73.2893C66.2147 73.3973 66.3627 73.5013 66.5747 73.6013C66.7907 73.7013 67.0967 73.8093 67.4927 73.9253C68.0247 74.0813 68.4647 74.2493 68.8127 74.4293C69.1647 74.6053 69.4267 74.8353 69.5987 75.1193C69.7747 75.3993 69.8627 75.7733 69.8627 76.2413V76.3373C69.8627 77.1093 69.6127 77.6893 69.1127 78.0773C68.6127 78.4613 67.8527 78.6533 66.8327 78.6533ZM72.138 78.4913L74.334 70.8233H77.154L79.338 78.4913H77.442L75.816 72.0593H75.678L74.034 78.4913H72.138ZM74.004 76.6853V75.2273H77.46V76.6853H74.004ZM81.9726 78.4913V70.8233H83.8386V78.4913H81.9726ZM83.0466 75.8213V74.2433H87.0246V75.8213H83.0466ZM82.5126 72.4013V70.8233H87.1146V72.4013H82.5126ZM90.0187 78.4913V70.8233H91.8547V78.4913H90.0187ZM90.5647 78.4913V76.9253H95.3887V78.4913H90.5647ZM91.0927 75.3533V73.8473H95.2447V75.3533H91.0927ZM90.5587 72.3713V70.8233H95.3347V72.3713H90.5587Z" fill="#615959"/>
<defs>
<linearGradient id="paint0_linear_1_10" x1="52.5347" y1="-0.00161743" x2="52.5347" y2="55.4926" gradientUnits="userSpaceOnUse">
<stop stop-color="#9747FF"/>
<stop offset="1" stop-color="#931ABE"/>
</linearGradient>
</defs>
</svg>
